<?xml version="1.0" standalone="no"?>
<!DOCTYPE svg PUBLIC "-//W3C//DTD SVG 20010904//EN"
 "http://www.w3.org/TR/2001/REC-SVG-20010904/DTD/svg10.dtd">
<svg version="1.0" xmlns="http://www.w3.org/2000/svg"
 width="441.000000pt" height="566.000000pt" viewBox="0 0 441.000000 566.000000"
 preserveAspectRatio="xMidYMid meet">

<g transform="translate(0.000000,566.000000) scale(0.100000,-0.100000)"
fill="#000000" stroke="none">
<path d="M0 2830 l0 -2830 2205 0 2205 0 0 2830 0 2830 -2205 0 -2205 0 0
-2830z m4400 898 l0 -1923 -26 33 c-15 19 -32 31 -40 28 -8 -3 -13 -1 -11 5 1
6 -7 16 -18 22 -11 7 -22 14 -25 17 -25 25 -38 27 -15 1 l30 -32 -28 5 c-24 4
-27 2 -27 -22 0 -27 20 -70 20 -44 0 6 5 12 11 12 6 0 8 -9 5 -20 -3 -11 -9
-29 -12 -40 -9 -34 15 -22 26 13 8 26 9 20 4 -33 -3 -36 -7 -78 -9 -95 -2 -16
2 -33 8 -37 9 -6 8 -8 -1 -8 -9 0 -11 -7 -7 -19 3 -11 1 -22 -5 -26 -6 -3 -8
-10 -5 -15 7 -11 23 -140 31 -240 7 -100 7 -101 0 -133 -4 -15 -3 -33 1 -40 5
-8 10 -1 14 18 6 27 7 26 8 -12 0 -24 -3 -43 -9 -43 -5 0 -10 -5 -10 -11 0 -5
4 -8 9 -5 9 6 25 -48 22 -74 -1 -8 -9 -29 -17 -47 -8 -17 -11 -38 -8 -47 3 -9
1 -22 -5 -29 -6 -8 -11 -60 -12 -121 -1 -102 -19 -188 -32 -155 -3 8 -6 -13
-7 -46 l-2 -60 -14 95 c-28 185 -31 195 -31 97 1 -89 -13 -129 -33 -97 -6 9
-2 23 11 41 18 26 18 27 -3 98 -11 39 -24 71 -28 71 -8 0 -5 -37 5 -71 6 -18
4 -21 -11 -15 -15 5 -15 2 4 -13 30 -26 28 -36 -9 -51 -20 -9 -28 -18 -24 -28
3 -9 0 -12 -8 -9 -8 3 -14 -1 -14 -9 0 -7 4 -11 9 -8 4 3 8 1 8 -5 0 -18 -18
-21 -31 -5 -12 14 -14 14 -21 -5 -4 -12 -12 -21 -17 -21 -7 0 -6 9 1 25 14 32
3 43 -25 26 -22 -14 -22 -14 -3 7 10 12 23 19 29 15 5 -3 7 -2 4 4 -3 5 -20 9
-37 8 -38 -2 -38 6 0 28 22 14 30 15 30 5 0 -10 2 -10 9 1 5 8 16 11 26 7 15
-5 16 -4 5 9 -8 9 -9 15 -2 15 6 0 16 -8 21 -17 6 -10 10 -13 10 -8 1 6 -9 21
-20 35 -11 14 -18 19 -14 12 3 -6 2 -12 -4 -12 -5 0 -12 9 -16 20 -3 11 -19
27 -35 36 -32 19 -110 167 -110 210 0 19 -4 25 -14 21 -10 -4 -13 -1 -9 9 4
10 -2 17 -15 21 -11 2 -23 16 -27 31 l-6 25 -21 -21 c-24 -23 -27 -9 34 -149
10 -23 18 -49 18 -57 0 -9 4 -16 9 -16 5 0 11 -10 14 -23 14 -60 148 -355 167
-367 13 -8 24 -53 11 -46 -7 4 -11 -1 -11 -12 0 -11 -7 -25 -15 -32 -8 -7 -15
-19 -15 -26 0 -8 -8 -14 -19 -14 -10 0 -24 -7 -31 -15 -17 -20 -66 -42 -112
-49 -20 -4 -38 -10 -40 -14 -2 -4 -16 -17 -32 -30 -16 -12 -25 -22 -21 -22 4
0 2 -7 -5 -15 -6 -8 -12 -36 -13 -62 -2 -48 -14 -72 -39 -74 -7 -1 -2 -5 12
-9 29 -9 -452 -13 -499 -4 -17 4 -28 11 -24 17 3 6 1 7 -5 3 -7 -4 -12 -3 -12
1 0 5 -16 9 -35 9 -21 0 -30 -3 -22 -8 6 -4 22 -8 35 -8 12 0 22 -4 22 -10 0
-6 -119 -11 -322 -13 -178 -1 -51 -3 281 -5 332 -1 602 -4 599 -7 -9 -10
-1836 -10 -1831 -1 4 5 0 6 -7 1 -17 -10 -1417 -18 -1525 -8 -76 7 -77 8 -35
14 l45 6 -40 2 c-29 1 -36 4 -25 11 12 8 12 11 -3 28 -9 10 -17 26 -17 36 0
10 -5 14 -11 10 -6 -4 0 13 15 38 14 25 26 51 26 59 0 25 -65 80 -105 89 -53
12 -68 4 -61 -34 l6 -31 -24 29 c-13 15 -29 46 -36 67 -7 22 -17 39 -22 39 -4
0 -8 18 -8 41 0 22 -3 38 -8 36 -12 -8 -3 145 12 193 26 82 36 172 26 225 -5
28 -15 78 -21 113 -7 34 -15 62 -19 62 -4 0 -10 18 -14 41 -4 26 -11 39 -19
36 -13 -5 -13 -6 4 -97 7 -36 17 -68 21 -71 5 -3 4 -16 -1 -30 -7 -17 -10 -19
-10 -6 -1 9 -6 17 -12 17 -8 0 -10 14 -6 39 2 21 1 45 -4 52 -6 9 -9 -15 -8
-66 1 -44 -2 -93 -6 -109 -5 -18 -4 -31 4 -36 7 -4 14 -22 15 -41 7 -83 8 -86
16 -49 l7 35 2 -35 c2 -29 4 -32 11 -15 7 16 9 17 9 3 1 -9 -4 -20 -9 -23 -6
-3 -10 -40 -10 -81 0 -43 -4 -74 -10 -74 -5 0 -11 -28 -12 -62 l-2 -63 -3 55
c-6 88 -23 85 -23 -4 0 -55 4 -82 15 -92 8 -9 15 -11 15 -5 0 6 4 11 9 11 11
0 32 -90 37 -170 3 -35 11 -68 17 -72 9 -6 9 -8 0 -8 -15 0 -41 -38 -46 -66
-4 -29 -32 -55 -51 -48 -14 6 -16 72 -15 643 0 364 4 627 9 616 5 -11 9 -32 9
-47 1 -16 5 -28 9 -28 5 0 7 13 4 30 -3 18 0 30 7 30 6 0 11 8 11 17 0 15 -2
14 -15 -3 -14 -19 -14 -19 -15 3 0 12 -4 25 -10 28 -6 4 -10 772 -10 2175 l0
2170 2195 0 2195 0 0 -1922z m-80 -2052 c0 -3 -4 -8 -10 -11 -5 -3 -10 -1 -10
4 0 6 5 11 10 11 6 0 10 -2 10 -4z m-16 -131 c-4 -8 -8 -15 -10 -15 -2 0 -4 7
-4 15 0 8 4 15 10 15 5 0 7 -7 4 -15z m76 -565 c0 -11 -4 -20 -10 -20 -5 0
-10 9 -10 20 0 11 5 20 10 20 6 0 10 -9 10 -20z m-225 -340 c3 -5 1 -10 -4
-10 -6 0 -11 5 -11 10 0 6 2 10 4 10 3 0 8 -4 11 -10z m-115 -40 c0 -5 -5 -10
-11 -10 -5 0 -7 5 -4 10 3 6 8 10 11 10 2 0 4 -4 4 -10z m186 -27 c0 -16 3
-41 7 -56 5 -18 4 -26 -2 -23 -12 8 -25 82 -16 96 9 15 10 13 11 -17z m-90 -5
c4 -6 3 -8 -4 -4 -6 3 -14 -3 -17 -15 -5 -15 -10 -18 -15 -9 -4 6 -11 11 -16
10 -5 -1 -10 4 -13 11 -2 6 1 9 6 6 5 -3 15 -2 23 4 20 12 27 11 36 -3z m64 2
c0 -5 -4 -10 -10 -10 -5 0 -10 5 -10 10 0 6 5 10 10 10 6 0 10 -4 10 -10z
m-56 -32 c-3 -4 0 -8 5 -8 6 0 11 6 12 13 0 8 2 8 5 1 3 -7 14 -10 24 -7 14 4
20 0 20 -11 0 -9 -5 -16 -11 -16 -5 0 -7 -4 -4 -10 3 -5 0 -20 -6 -32 -7 -13
-12 -36 -10 -52 3 -29 -13 -48 -34 -40 -9 4 -9 15 2 47 8 23 19 46 24 52 18
18 10 45 -13 44 -17 -1 -19 -2 -5 -6 23 -6 22 -23 -2 -23 -27 0 -51 10 -51 22
0 6 7 4 17 -3 14 -13 16 -11 11 12 -3 17 0 26 8 26 7 0 11 -4 8 -9z m-17 -120
c-3 -8 -6 -5 -6 6 -1 11 2 17 5 13 3 -3 4 -12 1 -19z m-267 -263 c0 -8 3 -14
8 -12 4 1 8 -2 10 -8 8 -22 -15 -14 -26 10 -7 15 -8 25 -2 25 6 0 10 -7 10
-15z m36 -82 c-3 -4 -6 -1 -6 6 0 7 -4 9 -10 6 -6 -4 -7 1 -3 11 6 15 7 15 15
-1 6 -9 7 -19 4 -22z m-3589 5 c-3 -8 -6 -5 -6 6 -1 11 2 17 5 13 3 -3 4 -12
1 -19z m3733 -58 c0 -5 -2 -10 -4 -10 -3 0 -8 5 -11 10 -3 6 -1 10 4 10 6 0
11 -4 11 -10z"/>
<path d="M2169 5296 c-3 -3 -31 -8 -62 -11 -73 -6 -194 -48 -227 -79 -14 -13
-50 -37 -80 -52 -30 -16 -59 -33 -65 -39 -5 -7 -33 -26 -60 -43 -101 -63 -259
-272 -320 -424 -41 -103 -54 -154 -61 -248 -3 -36 -12 -84 -20 -108 -8 -24
-12 -47 -9 -52 6 -10 -15 -60 -26 -60 -4 0 -6 -8 -4 -17 1 -10 0 -22 -4 -28
-9 -14 -8 -75 2 -75 4 0 7 -23 7 -51 0 -47 -1 -50 -22 -44 -17 5 -19 4 -9 -4
12 -7 12 -15 4 -33 -7 -15 -7 -31 -1 -48 9 -23 11 -23 17 -6 7 18 8 18 25 0
18 -17 18 -18 0 -25 -11 -3 -24 -4 -30 -2 -6 2 -16 -8 -22 -22 -9 -19 -9 -24
0 -22 8 1 15 -21 20 -63 4 -36 14 -90 22 -120 13 -51 14 -53 16 -20 1 19 1 61
0 93 -1 35 3 57 9 57 6 0 11 -15 11 -32 1 -28 2 -30 11 -15 5 9 8 20 5 25 -5
9 47 8 62 -2 18 -11 15 -56 -4 -56 -11 0 -14 6 -8 23 6 22 6 22 -15 -2 -21
-25 -27 -36 -13 -27 4 2 15 -2 25 -9 12 -8 14 -15 7 -20 -5 -3 -8 -11 -5 -16
4 -5 1 -9 -5 -9 -7 0 -9 -8 -5 -19 3 -11 1 -22 -5 -26 -5 -3 -10 -22 -10 -42
0 -36 22 -74 74 -128 25 -26 28 -27 22 -8 -12 37 -9 414 3 473 6 30 22 81 35
115 36 89 138 281 157 295 4 3 13 24 21 48 8 23 17 39 21 35 11 -10 8 6 -4 29
-8 16 -8 19 1 13 9 -5 10 -2 6 12 -5 16 1 22 36 33 24 8 49 18 56 23 6 5 12 6
12 1 0 -5 5 -2 10 6 9 13 11 13 21 0 9 -13 10 -12 5 3 -3 9 -1 17 4 17 6 0 10
11 10 25 0 14 5 25 10 25 6 0 10 7 10 15 0 15 52 72 92 99 21 15 16 41 -5 30
-18 -9 25 26 47 38 16 9 18 8 13 -6 -5 -13 2 -21 28 -32 46 -19 48 -18 84 12
39 32 84 27 79 -9 -2 -15 5 -26 21 -34 29 -16 38 -11 46 27 6 28 23 38 38 23
4 -4 31 -6 60 -4 29 1 83 -3 120 -9 59 -11 70 -16 83 -41 8 -16 18 -27 23 -25
4 3 15 -4 24 -15 9 -10 25 -19 35 -19 10 0 30 -6 45 -12 21 -10 25 -18 20 -37
-4 -16 -2 -22 5 -17 14 9 31 -22 25 -45 -4 -12 0 -19 10 -19 17 0 42 -48 55
-106 5 -23 24 -56 45 -79 20 -22 37 -46 37 -52 0 -7 3 -13 8 -13 4 0 16 -18
26 -40 11 -23 25 -39 31 -36 6 2 12 -5 12 -16 2 -18 -1 -18 -30 6 -58 47 -86
59 -104 44 -11 -9 -47 -13 -107 -13 -103 0 -140 -15 -172 -69 -14 -25 -15 -29
-2 -18 11 9 18 10 23 2 4 -7 12 -7 24 0 42 22 295 31 260 9 -11 -7 -9 -9 7 -9
11 0 42 -14 68 -31 27 -16 55 -28 62 -25 19 7 18 42 -1 50 -8 3 -15 10 -15 16
0 6 7 4 16 -4 20 -21 28 -20 20 2 -4 12 0 10 14 -7 11 -13 20 -30 20 -38 0 -8
5 -24 11 -35 9 -17 13 -18 20 -7 6 10 9 8 9 -8 0 -13 4 -23 9 -23 19 0 36
-138 35 -285 -1 -156 -22 -301 -46 -317 -10 -6 -9 -8 2 -8 12 0 13 -2 1 -9 -7
-5 -10 -14 -7 -20 4 -6 3 -11 -1 -11 -5 0 -10 -10 -10 -22 -1 -13 -7 -24 -13
-26 -5 -2 -10 -12 -10 -23 0 -10 -4 -19 -9 -19 -5 0 -16 -18 -25 -40 -9 -22
-21 -40 -27 -40 -7 0 -9 -11 -6 -29 4 -19 1 -33 -8 -41 -18 -15 -45 -6 -45 15
0 8 -4 15 -10 15 -5 0 -10 -13 -10 -28 0 -20 -7 -33 -25 -42 -14 -7 -25 -22
-25 -32 0 -10 -8 -22 -17 -25 -33 -12 -83 -58 -83 -75 0 -26 -29 -107 -46
-126 -82 -97 -140 -152 -165 -157 -16 -4 -29 -12 -29 -18 0 -7 -4 -6 -9 2 -8
12 -15 9 -38 -15 -38 -40 -71 -51 -176 -59 -55 -4 -85 -11 -81 -17 4 -7 -5 -8
-25 -3 -18 4 -31 3 -31 -3 0 -11 23 -17 110 -28 30 -4 66 -9 80 -10 14 -2 51
-7 83 -10 63 -7 74 -19 27 -29 -38 -8 -40 -24 -2 -18 55 9 127 26 137 33 14
10 75 30 75 24 0 -2 -9 -13 -21 -25 -22 -22 -18 -57 8 -72 7 -5 11 -12 8 -16
-2 -5 3 -8 12 -7 10 0 18 -4 18 -11 0 -6 3 -14 7 -18 4 -4 5 -12 3 -18 -3 -7
-6 -31 -9 -55 -3 -28 -13 -52 -30 -70 -87 -89 -106 -117 -106 -149 0 -29 3
-33 28 -33 20 0 23 -3 13 -9 -11 -7 -7 -10 15 -13 21 -2 29 -8 29 -23 0 -16 6
-19 27 -17 15 1 29 -2 33 -8 3 -5 16 -10 28 -11 21 0 21 -1 2 -9 -17 -7 -17
-9 -2 -9 9 -1 17 -5 17 -10 0 -6 20 -13 45 -17 25 -3 42 -10 39 -15 -7 -12 3
-11 28 2 16 8 19 8 13 -1 -8 -14 14 -32 28 -23 5 3 4 9 -3 13 -17 11 29 142
47 135 7 -2 13 0 13 4 0 5 -6 12 -12 14 -7 3 -4 6 7 6 15 1 17 3 6 10 -11 7
-9 29 17 127 17 65 36 120 41 122 5 2 8 11 5 20 -2 9 0 7 7 -4 13 -25 -24
-182 -86 -363 -34 -101 -41 -144 -14 -82 8 17 21 31 29 32 9 0 10 2 3 5 -8 4
-9 13 -1 35 5 16 14 26 19 23 5 -3 6 1 3 9 -3 8 2 34 10 58 9 24 16 52 16 62
0 9 4 17 10 17 5 0 7 7 4 15 -4 8 -1 15 5 15 6 0 8 7 4 17 -4 9 -2 14 4 10 5
-3 17 3 26 14 9 10 23 19 31 19 8 0 19 8 25 18 12 21 76 22 206 2 108 -16 134
-30 128 -68 l-3 -27 11 25 c7 14 11 29 10 34 -1 5 3 12 8 16 6 3 12 17 14 30
3 16 11 25 23 25 10 1 24 4 30 8 11 6 38 -15 30 -24 -2 -2 15 -4 39 -5 40 -1
43 1 35 20 -17 43 -44 92 -74 134 -27 39 -31 52 -33 130 -4 125 -20 255 -36
294 -8 18 -29 49 -46 68 -18 19 -41 53 -50 75 -38 85 -44 100 -45 112 -1 6
-14 26 -31 45 -16 18 -29 34 -27 36 1 1 2 5 2 10 0 4 -5 0 -10 -8 -8 -12 -9
-10 -7 7 2 13 14 34 27 48 29 30 19 32 -21 4 -16 -11 -29 -16 -29 -10 0 5 5
13 10 16 16 10 11 28 -6 21 -12 -4 -15 -2 -10 9 3 8 2 15 -3 15 -5 0 -7 12 -5
28 5 54 7 108 5 142 l-3 35 -16 -49 c-22 -65 -40 -71 -37 -12 2 24 8 53 13 63
5 10 15 47 21 83 7 36 19 83 28 104 10 29 11 41 3 46 -7 5 -2 10 14 14 22 5
24 9 14 20 -10 10 -15 11 -20 2 -6 -8 -8 -8 -8 0 0 6 7 17 15 24 9 7 13 21 10
31 -4 10 -1 28 5 39 6 11 15 56 20 100 5 44 18 110 30 146 39 128 37 194 -11
384 -11 41 -43 122 -71 180 -29 58 -52 110 -53 117 0 6 -15 27 -33 47 -17 19
-32 40 -32 46 0 15 -44 82 -69 104 -13 12 -21 14 -21 7 0 -9 -5 -8 -15 3 -8 8
-15 24 -15 36 0 13 -15 30 -45 49 -24 15 -42 31 -39 34 8 8 -77 68 -87 61 -5
-3 -9 0 -9 6 0 6 -4 9 -9 6 -5 -3 -14 1 -21 9 -19 23 -99 75 -116 75 -7 0 -14
5 -14 10 0 6 -9 10 -21 10 -11 0 -54 16 -95 35 -72 33 -82 35 -222 41 -81 3
-150 4 -153 0z m905 -422 c3 -8 2 -12 -4 -9 -6 3 -10 10 -10 16 0 14 7 11 14
-7z m-746 -141 c-10 -2 -26 -2 -35 0 -10 3 -2 5 17 5 19 0 27 -2 18 -5z m-11
-19 c-3 -3 -12 -4 -19 -1 -8 3 -5 6 6 6 11 1 17 -2 13 -5z m-1002 -864 c-3 -5
-10 -10 -16 -10 -5 0 -9 5 -9 10 0 6 7 10 16 10 8 0 12 -4 9 -10z m15 -25 c0
-8 -4 -15 -10 -15 -5 0 -7 7 -4 15 4 8 8 15 10 15 2 0 4 -7 4 -15z m-13 -77
c-3 -8 -6 -5 -6 6 -1 11 2 17 5 13 3 -3 4 -12 1 -19z m1909 -134 c-4 -9 -9
-15 -11 -12 -3 3 -3 13 1 22 4 9 9 15 11 12 3 -3 3 -13 -1 -22z m-51 -33 c3
-11 -1 -34 -9 -53 l-14 -33 -1 53 c-1 52 12 70 24 33z m-1781 -99 c-6 -14 -8
-11 -14 13 -9 42 1 67 13 32 5 -15 6 -35 1 -45z m1727 -118 c5 -15 7 -29 5
-32 -3 -3 -9 3 -12 12 -5 14 -9 15 -15 4 -6 -9 -9 -4 -9 15 0 34 17 35 31 1z
m-120 -221 c-4 -28 -6 -32 -9 -15 -3 22 3 52 11 52 1 0 1 -17 -2 -37z m-24
-55 c-3 -7 -5 -2 -5 12 0 14 2 19 5 13 2 -7 2 -19 0 -25z m-54 -990 c-9 -16
-14 -37 -14 -60 0 -12 -6 -15 -17 -11 -15 6 -15 5 -3 -13 14 -18 14 -18 -5 -1
-18 17 -18 19 -1 31 9 7 17 22 17 34 0 17 8 26 28 31 2 1 0 -5 -5 -11z m-93
-226 c0 -15 -2 -15 -10 -2 -13 20 -13 33 0 25 6 -3 10 -14 10 -23z"/>
<path d="M1686 4131 c-33 -24 -64 -49 -68 -55 -13 -19 12 -19 40 1 15 10 41
23 57 30 24 9 26 12 10 13 -11 1 4 8 34 15 29 7 62 10 72 8 11 -3 19 0 19 7 0
8 -14 10 -47 7 -27 -2 -40 -2 -30 0 24 6 21 22 -4 20 -12 -1 -49 -21 -83 -46z"/>
<path d="M1885 4150 c-24 -5 -26 -8 -12 -13 34 -13 42 -14 62 -6 18 7 18 8 2
8 -10 1 -15 6 -12 11 7 11 4 11 -40 0z"/>
<path d="M1975 4141 c17 -11 33 -21 37 -21 13 0 -2 27 -15 27 -7 0 -21 4 -32
8 -11 4 -7 -2 10 -14z"/>
<path d="M2560 3995 c-27 -9 -46 -11 -48 -5 -13 36 -97 -18 -108 -69 -3 -14
-9 -34 -15 -43 -5 -10 -9 -29 -9 -42 0 -37 39 -136 68 -175 21 -28 26 -31 34
-17 5 9 15 16 22 16 20 0 -8 97 -36 127 -13 14 -18 27 -12 33 11 11 244 -17
258 -31 6 -5 1 -9 -13 -9 -13 0 -19 -4 -16 -10 5 -7 -8 -9 -37 -6 -23 3 -50 1
-58 -5 -12 -8 -10 -9 8 -4 13 4 29 1 37 -5 8 -7 15 -9 15 -6 0 4 9 2 20 -4 11
-6 41 -15 68 -20 101 -19 186 28 234 129 23 48 23 48 -13 55 -24 5 -30 10 -26
25 3 14 0 18 -17 15 -11 -2 -15 -2 -8 2 21 10 13 26 -9 19 -14 -5 -19 -3 -15
3 4 6 -1 11 -11 10 -10 0 -45 5 -78 11 -88 16 -155 13 -200 -8 -41 -20 -127
-91 -110 -91 6 0 26 16 46 35 39 37 107 64 80 32 -7 -10 -19 -17 -25 -17 -7 0
-25 -13 -41 -30 -15 -16 -43 -36 -61 -45 -19 -9 -34 -20 -34 -26 0 -6 -4 -8
-9 -5 -23 14 31 143 62 145 12 1 8 -16 -8 -29 -8 -7 -15 -17 -15 -23 0 -6 11
0 24 12 14 13 46 34 73 47 54 26 49 29 -17 9z m239 -101 c17 -14 31 -32 31
-40 0 -18 -58 -44 -96 -44 l-27 0 21 23 c13 14 22 36 22 55 0 39 9 40 49 6z
m-189 -7 c0 -12 7 -33 16 -46 l16 -23 -68 7 c-38 4 -73 11 -77 15 -11 9 71 69
96 70 11 0 17 -8 17 -23z m48 1 c-6 -18 -28 -21 -28 -4 0 9 7 16 16 16 9 0 14
-5 12 -12z m43 -1 c-1 -12 -15 -9 -19 4 -3 6 1 10 8 8 6 -3 11 -8 11 -12z"/>
<path d="M1825 3990 c-27 -4 -60 -12 -72 -16 -26 -11 -103 -81 -103 -95 0 -11
48 -31 59 -24 5 2 17 -2 27 -10 32 -24 47 -16 17 10 l-28 24 35 31 c45 39 61
39 54 1 -5 -23 -1 -35 19 -55 15 -14 33 -26 42 -26 9 0 13 -4 10 -10 -3 -5 2
-10 11 -10 10 0 15 2 12 5 -3 3 7 19 23 35 31 30 37 67 17 89 -27 28 41 1 98
-39 56 -39 74 -45 58 -18 -5 7 -8 20 -7 28 3 24 -54 62 -115 76 -62 15 -82 15
-157 4z m240 -70 c10 -11 16 -20 13 -20 -3 0 -13 9 -23 20 -10 11 -16 20 -13
20 3 0 13 -9 23 -20z m-185 -15 c0 -8 -4 -15 -10 -15 -5 0 -10 7 -10 15 0 8 5
15 10 15 6 0 10 -7 10 -15z m46 -12 c-10 -10 -19 5 -10 18 6 11 8 11 12 0 2
-7 1 -15 -2 -18z"/>
<path d="M3051 3884 c0 -11 3 -14 6 -6 3 7 2 16 -1 19 -3 4 -6 -2 -5 -13z"/>
<path d="M2075 3843 c-22 -3 -44 -8 -49 -13 -11 -11 76 0 89 11 5 5 7 8 5 7
-3 -1 -23 -3 -45 -5z"/>
<path d="M2555 3780 c3 -5 13 -10 21 -10 8 0 12 5 9 10 -3 6 -13 10 -21 10 -8
0 -12 -4 -9 -10z"/>
<path d="M1300 3699 c0 -5 5 -7 10 -4 6 3 10 8 10 11 0 2 -4 4 -10 4 -5 0 -10
-5 -10 -11z"/>
<path d="M1280 3671 c0 -6 4 -12 8 -15 5 -3 9 1 9 9 0 8 -4 15 -9 15 -4 0 -8
-4 -8 -9z"/>
<path d="M1149 3603 c-60 -65 -74 -89 -88 -151 -14 -65 -14 -95 -1 -87 6 3 10
-2 10 -12 0 -10 4 -24 9 -32 5 -8 9 15 10 60 1 61 5 77 21 91 11 9 20 20 20
25 0 5 18 25 40 46 39 36 46 54 31 90 -6 16 -13 11 -52 -30z"/>
<path d="M2470 3524 c0 -11 9 -29 20 -39 17 -15 20 -16 20 -3 0 9 -9 26 -20
39 -19 23 -19 23 -20 3z"/>
<path d="M1111 3465 c-11 -50 -11 -59 0 -48 6 6 9 21 6 34 -2 13 -5 20 -6 14z"/>
<path d="M2163 3384 c-3 -10 5 -26 21 -42 26 -26 27 -27 42 -8 12 18 12 22 -8
43 -25 27 -46 30 -55 7z"/>
<path d="M2383 3344 l-51 -55 32 6 c17 4 41 13 54 21 19 13 22 13 22 -1 0 -8
4 -15 9 -15 14 0 71 57 71 71 0 10 -3 10 -12 1 -18 -18 -35 -15 -41 8 -8 33
-30 23 -84 -36z"/>
<path d="M1330 3359 c-11 -19 -10 -20 10 -9 11 6 18 15 15 21 -9 13 -13 11
-25 -12z"/>
<path d="M1254 3285 c-18 -13 -18 -14 5 -8 18 5 22 3 16 -7 -5 -9 -4 -11 4 -6
6 4 9 11 6 16 -3 4 1 11 7 13 9 4 8 6 -3 6 -8 1 -24 -6 -35 -14z"/>
<path d="M1208 3263 c-10 -2 -18 -9 -18 -14 0 -14 16 -11 30 6 7 8 11 14 9 14
-2 -1 -12 -3 -21 -6z"/>
<path d="M1393 3263 c-21 -8 -15 -26 7 -20 10 3 21 0 24 -7 3 -6 5 -2 3 8 -2
21 -14 27 -34 19z"/>
<path d="M1294 3235 c-3 -14 -9 -25 -13 -25 -3 0 -15 -17 -26 -37 -11 -21 -28
-46 -38 -55 -11 -9 -17 -23 -14 -30 2 -7 -5 -24 -17 -37 -11 -13 -15 -21 -8
-17 16 9 15 0 -3 -32 -8 -15 -21 -70 -30 -122 -20 -119 -19 -109 -10 -145 7
-29 7 -29 -8 -10 -19 23 -21 17 -7 -20 8 -20 6 -29 -10 -45 -12 -12 -15 -20
-7 -20 7 0 8 -3 2 -8 -5 -4 -16 -15 -24 -25 -12 -15 -12 -17 2 -12 13 6 13 2
-1 -28 -11 -23 -21 -32 -28 -26 -7 6 -15 1 -21 -14 -6 -13 -41 -43 -77 -67
-36 -24 -66 -45 -66 -47 0 -3 5 -1 10 2 6 3 10 4 10 1 0 -3 -19 -16 -42 -30
l-43 -26 39 0 c33 0 37 -2 26 -15 -10 -12 -10 -19 -2 -27 14 -14 16 -28 3 -28
-5 0 -11 9 -14 20 -3 13 -11 18 -20 14 -11 -4 -13 -16 -9 -50 4 -40 3 -44 -17
-44 -11 0 -21 4 -21 8 0 5 -17 6 -37 3 -44 -7 -54 -30 -24 -60 10 -10 17 -22
13 -25 -3 -3 2 -6 11 -6 10 0 17 -8 17 -20 0 -11 5 -20 10 -20 14 0 12 12 -5
37 -17 25 -13 29 58 62 28 14 47 29 47 39 0 13 2 14 9 4 6 -10 19 -9 62 8 39
16 58 19 70 11 9 -5 27 -7 39 -4 16 4 21 3 16 -5 -4 -7 -1 -12 8 -12 9 0 16 5
16 10 0 6 8 10 18 10 10 0 28 7 41 16 25 18 110 15 147 -4 11 -5 31 -15 46
-22 15 -7 27 -16 26 -19 -2 -15 15 -71 22 -71 4 0 1 33 -7 73 -15 78 -14 158
2 164 6 2 10 -9 11 -24 0 -16 4 -41 8 -58 4 -16 10 -47 13 -67 3 -21 9 -35 14
-32 5 3 9 3 9 -1 0 -3 -10 -10 -22 -15 -15 -5 -17 -9 -7 -9 22 -1 76 -300 57
-314 -9 -6 -7 -7 6 -3 14 5 17 2 12 -9 -3 -9 -2 -13 3 -10 5 3 7 30 4 60 -4
38 -2 55 6 55 6 0 11 -5 11 -11 0 -19 55 -5 58 15 3 16 -2 18 -41 15 -35 -3
-44 -1 -42 11 1 8 -1 20 -5 25 -16 20 -15 76 0 86 11 8 9 9 -10 3 -14 -3 -22
-3 -18 1 4 4 2 18 -3 32 -7 20 -6 29 8 40 17 14 17 14 -2 8 -16 -5 -18 -4 -7
6 17 18 15 27 -5 32 -17 4 -17 5 -1 6 10 0 24 -12 33 -29 10 -19 11 -30 5 -30
-6 0 -8 -5 -5 -10 4 -6 10 -8 15 -5 5 3 15 -3 22 -15 7 -11 18 -20 25 -20 7 0
24 -13 39 -29 28 -32 74 -47 74 -25 0 8 -7 14 -15 14 -9 0 -20 12 -26 27 -9
24 -7 30 11 45 12 10 26 15 31 12 11 -7 0 48 -11 56 -25 17 -59 140 -40 140 5
0 3 20 -4 45 -8 25 -12 45 -9 45 3 0 0 6 -6 14 -8 10 -9 21 -1 41 8 21 8 30
-1 36 -7 4 -9 14 -6 22 3 9 -1 18 -9 21 -8 3 -14 19 -14 38 0 25 3 29 10 18 8
-12 10 -10 10 8 0 13 5 33 11 44 8 15 8 22 0 28 -7 3 -9 14 -5 23 3 10 1 17
-5 17 -6 0 -11 -18 -11 -42 0 -60 -6 -44 -13 32 -3 41 -2 54 3 35 l8 -30 1 29
1 29 26 -39 c38 -59 159 -169 209 -193 55 -26 67 -26 38 -2 -12 10 -20 20 -18
22 2 2 -27 28 -65 57 -109 86 -203 184 -228 236 -33 70 -53 120 -72 184 -20
66 -24 72 -46 68 -13 -3 -28 -7 -33 -10 -14 -9 -62 35 -77 71 -17 40 -22 41
-30 8z m-51 -375 c-3 -11 -7 -20 -9 -20 -2 0 -4 9 -4 20 0 11 4 20 9 20 5 0 7
-9 4 -20z m-305 -570 c-15 -24 -25 -26 -25 -5 0 8 4 12 8 9 4 -2 10 0 14 6 3
5 8 10 11 10 2 0 -1 -9 -8 -20z m-58 -20 c0 -5 -4 -10 -10 -10 -5 0 -10 5 -10
10 0 6 5 10 10 10 6 0 10 -4 10 -10z"/>
<path d="M2956 3177 c3 -10 9 -15 12 -12 3 3 0 11 -7 18 -10 9 -11 8 -5 -6z"/>
<path d="M2452 3169 c5 -17 48 -25 48 -10 0 6 -4 11 -9 11 -5 0 -17 3 -27 7
-12 4 -15 2 -12 -8z"/>
<path d="M2394 3122 c6 -16 0 -21 -28 -26 -36 -7 -66 -29 -66 -47 0 -6 18 -9
41 -8 28 2 45 -1 53 -12 6 -9 17 -14 24 -12 17 6 3 -26 -25 -57 -35 -38 -30
-45 25 -40 25 2 30 -15 6 -24 -9 -3 -30 -6 -47 -6 -38 0 -75 -19 -42 -21 61
-4 133 31 193 93 39 39 56 68 32 53 -6 -3 -7 1 -3 10 5 13 7 14 14 3 13 -19
48 29 49 64 0 38 -20 46 -133 47 -93 2 -98 1 -93 -17z"/>
<path d="M2340 3115 c0 -8 4 -15 10 -15 5 0 7 7 4 15 -4 8 -8 15 -10 15 -2 0
-4 -7 -4 -15z"/>
<path d="M2101 3085 c-18 -8 -53 -15 -77 -15 -34 0 -46 -5 -54 -21 -15 -27 -8
-32 24 -18 23 11 32 10 56 -5 25 -14 29 -15 24 -1 -4 9 -1 15 9 15 9 0 20 6
24 14 4 8 17 15 27 17 22 5 35 29 14 29 -7 -1 -28 -7 -47 -15z"/>
<path d="M2145 3062 c-29 -6 -43 -22 -19 -22 20 0 52 16 44 23 -3 2 -14 1 -25
-1z"/>
<path d="M2190 3060 c0 -5 5 -10 11 -10 5 0 7 5 4 10 -3 6 -8 10 -11 10 -2 0
-4 -4 -4 -10z"/>
<path d="M2260 3050 c0 -5 5 -10 10 -10 6 0 10 5 10 10 0 6 -4 10 -10 10 -5 0
-10 -4 -10 -10z"/>
<path d="M1983 2524 c16 -8 34 -13 40 -10 7 2 4 5 -5 5 -10 1 -18 6 -18 11 0
6 -10 10 -22 10 -22 -1 -21 -2 5 -16z"/>
<path d="M820 2285 c-7 -9 -11 -18 -8 -20 3 -3 11 1 18 10 7 9 11 18 8 20 -3
3 -11 -1 -18 -10z"/>
<path d="M2985 2240 c-3 -5 -1 -10 4 -10 6 0 11 5 11 10 0 6 -2 10 -4 10 -3 0
-8 -4 -11 -10z"/>
<path d="M1360 2206 c0 -2 7 -7 16 -10 8 -3 12 -2 9 4 -6 10 -25 14 -25 6z"/>
<path d="M3511 2171 c-9 -6 -10 -11 -2 -15 6 -4 11 -2 11 3 0 6 4 11 10 11 5
0 7 -8 3 -17 -5 -15 -3 -16 8 -5 7 6 22 12 34 13 20 0 20 0 0 9 -26 11 -47 12
-64 1z"/>
<path d="M3570 2140 c8 -5 20 -10 25 -10 6 0 3 5 -5 10 -8 5 -19 10 -25 10 -5
0 -3 -5 5 -10z"/>
<path d="M3490 2128 c0 -4 4 -8 9 -8 6 0 12 4 15 8 3 5 -1 9 -9 9 -8 0 -15 -4
-15 -9z"/>
<path d="M390 2113 c-8 -3 -33 -14 -54 -24 -22 -10 -55 -22 -75 -25 -20 -4
-65 -22 -101 -41 -36 -18 -54 -30 -40 -27 14 4 41 8 61 9 35 2 199 54 209 66
3 4 20 10 38 14 18 3 30 10 27 15 -3 5 3 10 12 12 10 3 0 5 -22 5 -22 0 -47
-2 -55 -4z"/>
<path d="M1432 2085 c0 -16 2 -22 5 -12 2 9 2 23 0 30 -3 6 -5 -1 -5 -18z"/>
<path d="M820 2079 c0 -11 5 -17 10 -14 6 3 10 13 10 21 0 8 -4 14 -10 14 -5
0 -10 -9 -10 -21z"/>
<path d="M3470 2088 c0 -6 3 -8 7 -5 3 4 13 1 22 -6 14 -11 14 -10 2 6 -15 20
-31 22 -31 5z"/>
<path d="M760 2061 c0 -5 5 -13 10 -16 6 -3 10 -2 10 4 0 5 -4 13 -10 16 -5 3
-10 2 -10 -4z"/>
<path d="M3457 2063 c-4 -3 -7 -11 -7 -17 0 -6 5 -5 12 2 6 6 9 14 7 17 -3 3
-9 2 -12 -2z"/>
<path d="M724 2049 c-4 -7 -3 -9 4 -5 5 3 12 0 15 -6 2 -7 7 -10 11 -7 4 3 0
12 -8 18 -11 9 -16 9 -22 0z"/>
<path d="M1512 2049 c2 -7 14 -19 26 -27 19 -13 22 -13 22 0 0 8 -12 20 -26
27 -20 9 -25 9 -22 0z"/>
<path d="M3673 2053 c15 -2 39 -2 55 0 15 2 2 4 -28 4 -30 0 -43 -2 -27 -4z"/>
<path d="M3768 2053 c7 -3 16 -2 19 1 4 3 -2 6 -13 5 -11 0 -14 -3 -6 -6z"/>
<path d="M870 2019 c15 -18 26 -38 23 -45 -3 -8 -1 -14 5 -14 5 0 12 6 15 13
5 13 -46 77 -62 77 -6 0 3 -14 19 -31z"/>
<path d="M3366 2033 c-6 -14 -5 -15 5 -6 7 7 10 15 7 18 -3 3 -9 -2 -12 -12z"/>
<path d="M3470 2035 c-8 -9 -8 -15 -2 -15 12 0 26 19 19 26 -2 2 -10 -2 -17
-11z"/>
<path d="M3494 2026 c-9 -20 -9 -23 2 -19 8 3 14 14 14 24 0 25 -3 24 -16 -5z"/>
<path d="M1443 1989 c-1 -10 2 -19 8 -19 11 0 12 27 1 34 -4 2 -9 -4 -9 -15z"/>
<path d="M250 1947 c0 -13 -6 -29 -12 -37 -7 -8 -3 -6 10 4 12 11 20 21 17 24
-3 3 0 11 6 19 9 10 8 13 -5 13 -10 0 -16 -8 -16 -23z"/>
<path d="M926 1944 c8 -36 12 -40 23 -28 6 5 2 19 -10 33 l-20 25 7 -30z"/>
<path d="M2906 1955 c-9 -26 -7 -32 5 -12 6 10 9 21 6 23 -2 3 -7 -2 -11 -11z"/>
<path d="M3309 1953 c-13 -16 -12 -17 4 -4 16 13 21 21 13 21 -2 0 -10 -8 -17
-17z"/>
<path d="M3987 1953 c-4 -3 -7 -11 -7 -17 0 -6 5 -5 12 2 6 6 9 14 7 17 -3 3
-9 2 -12 -2z"/>
<path d="M72 1938 c-16 -16 -15 -39 1 -32 7 2 13 13 14 24 2 23 1 24 -15 8z"/>
<path d="M220 1940 c0 -5 5 -10 10 -10 6 0 10 5 10 10 0 6 -4 10 -10 10 -5 0
-10 -4 -10 -10z"/>
<path d="M4030 1941 c0 -5 5 -13 10 -16 6 -3 10 -2 10 4 0 5 -4 13 -10 16 -5
3 -10 2 -10 -4z"/>
<path d="M131 1914 c0 -11 3 -14 6 -6 3 7 2 16 -1 19 -3 4 -6 -2 -5 -13z"/>
<path d="M201 1914 c0 -11 3 -14 6 -6 3 7 2 16 -1 19 -3 4 -6 -2 -5 -13z"/>
<path d="M970 1896 c0 -2 7 -7 16 -10 8 -3 12 -2 9 4 -6 10 -25 14 -25 6z"/>
<path d="M3245 1890 c-3 -5 -1 -10 4 -10 6 0 11 5 11 10 0 6 -2 10 -4 10 -3 0
-8 -4 -11 -10z"/>
<path d="M4060 1884 c0 -8 5 -12 10 -9 6 4 8 11 5 16 -9 14 -15 11 -15 -7z"/>
<path d="M3210 1875 c-7 -9 -8 -15 -2 -15 5 0 12 7 16 15 3 8 4 15 2 15 -2 0
-9 -7 -16 -15z"/>
<path d="M3171 1851 c-7 -5 -12 -14 -10 -20 2 -6 10 -2 17 9 14 22 13 23 -7
11z"/>
<path d="M39 1783 c-13 -16 -12 -17 4 -4 9 7 17 15 17 17 0 8 -8 3 -21 -13z"/>
<path d="M1095 1790 c3 -5 16 -10 28 -9 21 0 21 1 2 9 -28 12 -37 12 -30 0z"/>
<path d="M4158 1793 c10 -4 10 -8 0 -21 -12 -15 -11 -16 4 -3 19 14 15 32 -5
30 -8 0 -8 -2 1 -6z"/>
<path d="M2840 1780 c0 -5 5 -10 10 -10 6 0 10 5 10 10 0 6 -4 10 -10 10 -5 0
-10 -4 -10 -10z"/>
<path d="M3170 1769 c0 -5 5 -7 10 -4 6 3 10 8 10 11 0 2 -4 4 -10 4 -5 0 -10
-5 -10 -11z"/>
<path d="M1140 1760 c0 -5 5 -10 11 -10 5 0 7 5 4 10 -3 6 -8 10 -11 10 -2 0
-4 -4 -4 -10z"/>
<path d="M2830 1749 c0 -5 -4 -7 -10 -4 -6 3 -7 -1 -4 -10 4 -9 7 -15 8 -13 1
2 8 11 15 21 9 11 10 17 2 17 -6 0 -11 -5 -11 -11z"/>
<path d="M4230 1728 c0 -35 16 -56 32 -40 9 9 8 12 -7 13 -19 0 -19 1 0 9 17
7 17 9 3 9 -11 1 -15 6 -12 16 4 8 1 15 -5 15 -6 0 -11 -10 -11 -22z"/>
<path d="M3761 1724 c0 -11 3 -14 6 -6 3 7 2 16 -1 19 -3 4 -6 -2 -5 -13z"/>
<path d="M2970 1720 c0 -5 5 -10 10 -10 6 0 10 5 10 10 0 6 -4 10 -10 10 -5 0
-10 -4 -10 -10z"/>
<path d="M3070 1710 c0 -5 4 -10 9 -10 6 0 13 5 16 10 3 6 -1 10 -9 10 -9 0
-16 -4 -16 -10z"/>
<path d="M3925 1711 c-6 -11 13 -26 22 -17 4 3 1 6 -6 6 -7 0 -9 5 -6 10 3 6
4 10 1 10 -3 0 -7 -4 -11 -9z"/>
<path d="M3025 1690 c-3 -5 1 -10 10 -10 9 0 13 5 10 10 -3 6 -8 10 -10 10 -2
0 -7 -4 -10 -10z"/>
<path d="M2845 1680 c-3 -5 -1 -10 4 -10 6 0 11 5 11 10 0 6 -2 10 -4 10 -3 0
-8 -4 -11 -10z"/>
<path d="M110 1660 c-9 -6 -10 -10 -3 -10 6 0 15 5 18 10 8 12 4 12 -15 0z"/>
<path d="M2960 1660 c0 -5 4 -10 9 -10 6 0 13 5 16 10 3 6 -1 10 -9 10 -9 0
-16 -4 -16 -10z"/>
<path d="M4247 1657 c-3 -9 1 -18 9 -21 16 -6 18 2 5 22 -7 11 -9 11 -14 -1z"/>
<path d="M3725 1647 c-11 -26 1 -59 35 -94 16 -18 30 -36 30 -40 0 -5 13 -19
29 -33 17 -13 27 -28 24 -33 -3 -6 -1 -7 5 -3 6 3 13 2 17 -4 3 -5 1 -10 -6
-10 -7 0 -10 -2 -7 -5 8 -8 36 5 42 20 3 9 0 12 -9 9 -7 -3 -16 3 -20 15 -3
12 -10 21 -15 21 -4 0 -10 9 -13 21 -3 12 -10 18 -17 14 -6 -4 -15 6 -21 24
-6 17 -15 31 -21 31 -5 0 -6 5 -2 12 4 6 0 16 -8 22 -8 6 -19 20 -26 31 -10
18 -11 19 -17 2z"/>
<path d="M2908 1643 c7 -3 16 -2 19 1 4 3 -2 6 -13 5 -11 0 -14 -3 -6 -6z"/>
<path d="M3890 1621 c0 -6 4 -13 10 -16 6 -3 7 1 4 9 -7 18 -14 21 -14 7z"/>
<path d="M1510 1590 c0 -5 5 -10 11 -10 5 0 7 5 4 10 -3 6 -8 10 -11 10 -2 0
-4 -4 -4 -10z"/>
<path d="M3938 1590 c25 -11 30 -45 7 -54 -17 -6 -21 -36 -5 -36 6 0 9 4 8 9
-3 8 48 61 59 61 3 0 3 -7 -1 -15 -3 -8 -1 -15 3 -15 15 0 21 29 8 37 -7 4
-22 6 -34 5 -11 -2 -24 2 -28 7 -3 6 -14 11 -23 10 -12 0 -11 -3 6 -9z"/>
<path d="M1580 1581 c0 -5 7 -12 16 -15 14 -5 15 -4 4 9 -14 17 -20 19 -20 6z"/>
<path d="M2608 1583 c6 -2 18 -2 25 0 6 3 1 5 -13 5 -14 0 -19 -2 -12 -5z"/>
<path d="M3881 1574 c0 -11 3 -14 6 -6 3 7 2 16 -1 19 -3 4 -6 -2 -5 -13z"/>
<path d="M4231 1574 c0 -11 3 -14 6 -6 3 7 2 16 -1 19 -3 4 -6 -2 -5 -13z"/>
<path d="M2538 1573 c7 -3 16 -2 19 1 4 3 -2 6 -13 5 -11 0 -14 -3 -6 -6z"/>
<path d="M2468 1563 c7 -3 16 -2 19 1 4 3 -2 6 -13 5 -11 0 -14 -3 -6 -6z"/>
<path d="M4177 1563 c-4 -3 -7 -11 -7 -17 0 -6 5 -5 12 2 6 6 9 14 7 17 -3 3
-9 2 -12 -2z"/>
<path d="M2388 1553 c7 -3 16 -2 19 1 4 3 -2 6 -13 5 -11 0 -14 -3 -6 -6z"/>
<path d="M2145 1540 c3 -5 11 -10 16 -10 6 0 7 5 4 10 -3 6 -11 10 -16 10 -6
0 -7 -4 -4 -10z"/>
<path d="M2068 1533 c7 -3 16 -2 19 1 4 3 -2 6 -13 5 -11 0 -14 -3 -6 -6z"/>
<path d="M4191 1530 c-1 -18 16 -46 23 -40 2 3 -2 16 -9 30 -8 15 -14 19 -14
10z"/>
<path d="M4011 1464 c0 -11 3 -14 6 -6 3 7 2 16 -1 19 -3 4 -6 -2 -5 -13z"/>
<path d="M4220 1470 c0 -5 5 -10 11 -10 5 0 7 5 4 10 -3 6 -8 10 -11 10 -2 0
-4 -4 -4 -10z"/>
<path d="M4048 1463 c6 -2 10 -9 7 -14 -4 -5 1 -6 10 -3 9 4 15 3 13 -2 -3
-10 5 -14 25 -14 6 0 -1 9 -18 20 -16 11 -34 20 -40 19 -5 0 -4 -3 3 -6z"/>
<path d="M4158 1452 c9 -10 19 -17 21 -16 6 5 -20 34 -30 34 -5 0 -1 -8 9 -18z"/>
<path d="M225 1449 c-4 -6 -5 -12 -2 -15 2 -3 7 2 10 11 7 17 1 20 -8 4z"/>
<path d="M3171 1444 c0 -11 3 -14 6 -6 3 7 2 16 -1 19 -3 4 -6 -2 -5 -13z"/>
<path d="M3947 1445 c-4 -8 -2 -17 2 -20 5 -2 11 4 14 15 6 23 -8 27 -16 5z"/>
<path d="M4220 1433 c0 -12 -3 -30 -6 -40 -5 -13 -2 -12 10 4 13 17 14 27 7
40 -9 16 -10 16 -11 -4z"/>
<path d="M4132 1414 c10 -10 20 -15 24 -12 3 4 -5 12 -18 18 -22 12 -22 12 -6
-6z"/>
<path d="M216 1412 c-3 -6 -1 -14 5 -17 14 -9 20 -2 10 14 -6 8 -11 9 -15 3z"/>
<path d="M4180 1415 c0 -5 5 -17 10 -25 5 -8 10 -10 10 -5 0 6 -5 17 -10 25
-5 8 -10 11 -10 5z"/>
<path d="M3220 1393 c0 -15 18 -35 23 -27 3 5 -1 15 -9 22 -8 7 -14 9 -14 5z"/>
<path d="M170 1380 c-8 -5 -10 -10 -5 -10 6 0 17 5 25 10 8 5 11 10 5 10 -5 0
-17 -5 -25 -10z"/>
<path d="M30 1376 c0 -2 7 -6 15 -10 8 -3 15 -1 15 4 0 6 -7 10 -15 10 -8 0
-15 -2 -15 -4z"/>
<path d="M4218 1358 c-2 -7 -1 -26 3 -43 6 -27 7 -25 6 13 0 44 -2 50 -9 30z"/>
<path d="M3136 1345 c-11 -8 -15 -15 -9 -15 7 0 15 5 18 11 4 6 14 8 22 5 8
-3 11 -1 8 4 -8 13 -16 12 -39 -5z"/>
<path d="M4090 1350 c8 -5 20 -10 25 -10 6 0 3 5 -5 10 -8 5 -19 10 -25 10 -5
0 -3 -5 5 -10z"/>
<path d="M30 1339 c0 -5 5 -7 10 -4 6 3 10 8 10 11 0 2 -4 4 -10 4 -5 0 -10
-5 -10 -11z"/>
<path d="M4176 1319 c-12 -12 -15 -19 -7 -19 8 0 12 -13 10 -40 -2 -29 2 -45
16 -58 15 -14 17 -14 7 -1 -12 16 -10 64 3 78 3 3 4 -7 1 -22 -2 -14 0 -30 6
-33 12 -8 2 96 -10 107 -4 4 -16 -2 -26 -12z"/>
<path d="M140 1290 c-9 -6 -10 -10 -3 -10 6 0 15 5 18 10 8 12 4 12 -15 0z"/>
<path d="M3051 1260 c0 -8 4 -22 9 -30 12 -18 12 -2 0 25 -6 13 -9 15 -9 5z"/>
<path d="M3794 1108 c3 -13 5 -25 6 -28 0 -3 5 3 11 13 10 18 5 37 -12 37 -5
0 -7 -10 -5 -22z"/>
<path d="M2222 750 c0 -14 2 -19 5 -12 2 6 2 18 0 25 -3 6 -5 1 -5 -13z"/>
<path d="M2050 730 c-9 -6 -10 -10 -3 -10 6 0 15 5 18 10 8 12 4 12 -15 0z"/>
<path d="M4140 680 c0 -5 5 -10 10 -10 6 0 10 5 10 10 0 6 -4 10 -10 10 -5 0
-10 -4 -10 -10z"/>
<path d="M4075 655 c1 -14 5 -28 10 -32 4 -5 5 -3 1 4 -3 6 -2 14 3 18 6 3 8
12 4 20 -8 23 -19 17 -18 -10z"/>
<path d="M1918 663 c7 -3 16 -2 19 1 4 3 -2 6 -13 5 -11 0 -14 -3 -6 -6z"/>
<path d="M3160 90 c0 -5 5 -10 11 -10 5 0 7 5 4 10 -3 6 -8 10 -11 10 -2 0 -4
-4 -4 -10z"/>
<path d="M3250 80 c-8 -16 -8 -18 4 -14 8 3 17 1 21 -5 3 -6 16 -11 28 -10 18
0 16 3 -11 15 -18 8 -30 19 -27 24 3 6 4 10 1 10 -3 0 -10 -9 -16 -20z"/>
<path d="M750 82 c0 -6 -8 -13 -17 -15 -16 -4 -16 -5 -1 -6 18 -1 34 16 24 26
-3 4 -6 1 -6 -5z"/>
<path d="M2105 51 c-3 -5 -1 -12 5 -16 5 -3 10 1 10 9 0 18 -6 21 -15 7z"/>
<path d="M1538 33 c12 -2 32 -2 45 0 12 2 2 4 -23 4 -25 0 -35 -2 -22 -4z"/>
<path d="M1713 33 c9 -2 25 -2 35 0 9 3 1 5 -18 5 -19 0 -27 -2 -17 -5z"/>
<path d="M2283 33 c37 -2 97 -2 135 0 37 2 6 3 -68 3 -74 0 -105 -1 -67 -3z"/>
</g>
</svg>
